<svg width="133" height="52" viewBox="0 0 133 52" fill="none" xmlns="http://www.w3.org/2000/svg">
<g filter="url(#filter0_d_9902_9)">
<path d="M53.4854 5.70801H58.4254V25H53.4854V5.70801Z" fill="#111518"/>
</g>
<g filter="url(#filter1_d_9902_9)">
<path d="M44.2949 5.70801H49.2349V25H44.2949V5.70801Z" fill="#111518"/>
</g>
<g filter="url(#filter2_d_9902_9)">
<path d="M40.9775 17.9798C40.9775 18.0145 40.9515 18.4218 40.8995 19.2018H30.6555C30.8635 19.9298 31.2621 20.4932 31.8515 20.8918C32.4581 21.2732 33.2121 21.4638 34.1135 21.4638C34.7895 21.4638 35.3701 21.3685 35.8555 21.1778C36.3581 20.9872 36.8608 20.6752 37.3635 20.2418L39.9635 22.9458C38.5941 24.4712 36.5921 25.2338 33.9575 25.2338C32.3108 25.2338 30.8635 24.9218 29.6155 24.2978C28.3675 23.6738 27.3968 22.8072 26.7035 21.6978C26.0275 20.5885 25.6895 19.3318 25.6895 17.9278C25.6895 16.5412 26.0188 15.3018 26.6775 14.2098C27.3535 13.1005 28.2808 12.2338 29.4595 11.6098C30.6381 10.9858 31.9641 10.6738 33.4375 10.6738C34.8415 10.6738 36.1155 10.9685 37.2595 11.5578C38.4035 12.1298 39.3048 12.9705 39.9635 14.0798C40.6395 15.1718 40.9775 16.4718 40.9775 17.9798ZM33.4635 14.1838C32.7008 14.1838 32.0595 14.4005 31.5395 14.8338C31.0368 15.2672 30.7161 15.8565 30.5775 16.6018H36.3495C36.2108 15.8565 35.8815 15.2672 35.3615 14.8338C34.8588 14.4005 34.2261 14.1838 33.4635 14.1838Z" fill="#111518"/>
</g>
<g filter="url(#filter3_d_9902_9)">
<path d="M22.1363 6.7998V24.9998H16.9883V17.9018H9.96831V24.9998H4.82031V6.7998H9.96831V13.6378H16.9883V6.7998H22.1363Z" fill="#111518"/>
</g>
<g filter="url(#filter4_d_9902_9)">
<path d="M99.4524 37.4004V43.0004H98.1564V40.7044H95.6124V43.0004H94.3164V37.4004H95.6124V39.6084H98.1564V37.4004H99.4524Z" fill="#111518"/>
</g>
<g filter="url(#filter5_d_9902_9)">
<path d="M89.615 43.0962C89.1723 43.0962 88.743 43.0375 88.327 42.9202C87.9163 42.7975 87.5856 42.6402 87.335 42.4482L87.775 41.4722C88.015 41.6482 88.3003 41.7895 88.631 41.8962C88.9616 42.0029 89.2923 42.0562 89.623 42.0562C89.991 42.0562 90.263 42.0029 90.439 41.8962C90.615 41.7842 90.703 41.6375 90.703 41.4562C90.703 41.3229 90.6496 41.2135 90.543 41.1282C90.4416 41.0375 90.3083 40.9655 90.143 40.9122C89.983 40.8589 89.7643 40.8002 89.487 40.7362C89.0603 40.6349 88.711 40.5335 88.439 40.4322C88.167 40.3309 87.9323 40.1682 87.735 39.9442C87.543 39.7202 87.447 39.4215 87.447 39.0482C87.447 38.7229 87.535 38.4295 87.711 38.1682C87.887 37.9015 88.151 37.6909 88.503 37.5362C88.8603 37.3815 89.295 37.3042 89.807 37.3042C90.1643 37.3042 90.5136 37.3469 90.855 37.4322C91.1963 37.5175 91.495 37.6402 91.751 37.8002L91.351 38.7842C90.8336 38.4909 90.3163 38.3442 89.799 38.3442C89.4363 38.3442 89.167 38.4029 88.991 38.5202C88.8203 38.6375 88.735 38.7922 88.735 38.9842C88.735 39.1762 88.8336 39.3202 89.031 39.4162C89.2336 39.5069 89.5403 39.5975 89.951 39.6882C90.3776 39.7895 90.727 39.8909 90.999 39.9922C91.271 40.0935 91.503 40.2535 91.695 40.4722C91.8923 40.6909 91.991 40.9869 91.991 41.3602C91.991 41.6802 91.9003 41.9735 91.719 42.2402C91.543 42.5015 91.2763 42.7095 90.919 42.8642C90.5616 43.0189 90.127 43.0962 89.615 43.0962Z" fill="#111518"/>
</g>
<g filter="url(#filter6_d_9902_9)">
<path d="M83.71 37.4004H85.006V43.0004H83.71V37.4004Z" fill="#111518"/>
</g>
<g filter="url(#filter7_d_9902_9)">
<path d="M77.4414 37.4004H78.7374V41.9444H81.5454V43.0004H77.4414V37.4004Z" fill="#111518"/>
</g>
<g filter="url(#filter8_d_9902_9)">
<path d="M73.6135 40.1122H74.7975V42.3842C74.4935 42.6135 74.1415 42.7895 73.7415 42.9122C73.3415 43.0349 72.9389 43.0962 72.5335 43.0962C71.9522 43.0962 71.4295 42.9735 70.9655 42.7282C70.5015 42.4775 70.1362 42.1335 69.8695 41.6962C69.6082 41.2535 69.4775 40.7549 69.4775 40.2002C69.4775 39.6455 69.6082 39.1495 69.8695 38.7122C70.1362 38.2695 70.5042 37.9255 70.9735 37.6802C71.4429 37.4295 71.9709 37.3042 72.5575 37.3042C73.0482 37.3042 73.4935 37.3869 73.8935 37.5522C74.2935 37.7175 74.6295 37.9575 74.9015 38.2722L74.0695 39.0402C73.6695 38.6189 73.1869 38.4082 72.6215 38.4082C72.2642 38.4082 71.9469 38.4829 71.6695 38.6322C71.3922 38.7815 71.1762 38.9922 71.0215 39.2642C70.8669 39.5362 70.7895 39.8482 70.7895 40.2002C70.7895 40.5469 70.8669 40.8562 71.0215 41.1282C71.1762 41.4002 71.3895 41.6135 71.6615 41.7682C71.9389 41.9175 72.2535 41.9922 72.6055 41.9922C72.9789 41.9922 73.3149 41.9122 73.6135 41.7522V40.1122Z" fill="#111518"/>
</g>
<g filter="url(#filter9_d_9902_9)">
<path d="M67.0647 37.4004V43.0004H66.0007L63.2087 39.6004V43.0004H61.9287V37.4004H63.0007L65.7847 40.8004V37.4004H67.0647Z" fill="#111518"/>
</g>
<g filter="url(#filter10_d_9902_9)">
<path d="M59.4571 41.9604V43.0004H55.1211V37.4004H59.3531V38.4404H56.4091V39.6564H59.0091V40.6644H56.4091V41.9604H59.4571Z" fill="#111518"/>
</g>
<g filter="url(#filter11_d_9902_9)">
<path d="M48.6506 37.4004V43.0004H47.3546V40.7044H44.8106V43.0004H43.5146V37.4004H44.8106V39.6084H47.3546V37.4004H48.6506Z" fill="#FF6B09"/>
</g>
<g filter="url(#filter12_d_9902_9)">
<path d="M38.8132 43.0962C38.3705 43.0962 37.9412 43.0375 37.5252 42.9202C37.1145 42.7975 36.7839 42.6402 36.5332 42.4482L36.9732 41.4722C37.2132 41.6482 37.4985 41.7895 37.8292 41.8962C38.1599 42.0029 38.4905 42.0562 38.8212 42.0562C39.1892 42.0562 39.4612 42.0029 39.6372 41.8962C39.8132 41.7842 39.9012 41.6375 39.9012 41.4562C39.9012 41.3229 39.8479 41.2135 39.7412 41.1282C39.6399 41.0375 39.5065 40.9655 39.3412 40.9122C39.1812 40.8589 38.9625 40.8002 38.6852 40.7362C38.2585 40.6349 37.9092 40.5335 37.6372 40.4322C37.3652 40.3309 37.1305 40.1682 36.9332 39.9442C36.7412 39.7202 36.6452 39.4215 36.6452 39.0482C36.6452 38.7229 36.7332 38.4295 36.9092 38.1682C37.0852 37.9015 37.3492 37.6909 37.7012 37.5362C38.0585 37.3815 38.4932 37.3042 39.0052 37.3042C39.3625 37.3042 39.7119 37.3469 40.0532 37.4322C40.3945 37.5175 40.6932 37.6402 40.9492 37.8002L40.5492 38.7842C40.0319 38.4909 39.5145 38.3442 38.9972 38.3442C38.6345 38.3442 38.3652 38.4029 38.1892 38.5202C38.0185 38.6375 37.9332 38.7922 37.9332 38.9842C37.9332 39.1762 38.0319 39.3202 38.2292 39.4162C38.4319 39.5069 38.7385 39.5975 39.1492 39.6882C39.5759 39.7895 39.9252 39.8909 40.1972 39.9922C40.4692 40.0935 40.7012 40.2535 40.8932 40.4722C41.0905 40.6909 41.1892 40.9869 41.1892 41.3602C41.1892 41.6802 41.0985 41.9735 40.9172 42.2402C40.7412 42.5015 40.4745 42.7095 40.1172 42.8642C39.7599 43.0189 39.3252 43.0962 38.8132 43.0962Z" fill="#FF6B09"/>
</g>
<g filter="url(#filter13_d_9902_9)">
<path d="M32.9082 37.4004H34.2042V43.0004H32.9082V37.4004Z" fill="#FF6B09"/>
</g>
<g filter="url(#filter14_d_9902_9)">
<path d="M26.6406 37.4004H27.9366V41.9444H30.7446V43.0004H26.6406V37.4004Z" fill="#FF6B09"/>
</g>
<g filter="url(#filter15_d_9902_9)">
<path d="M20.3721 37.4004H21.6681V41.9444H24.4761V43.0004H20.3721V37.4004Z" fill="#FF6B09"/>
</g>
<g filter="url(#filter16_d_9902_9)">
<path d="M17.9014 41.9604V43.0004H13.5654V37.4004H17.7974V38.4404H14.8534V39.6564H17.4534V40.6644H14.8534V41.9604H17.9014Z" fill="#FF6B09"/>
</g>
<g filter="url(#filter17_d_9902_9)">
<path d="M10.8001 37.4004V43.0004H9.50406V40.7044H6.96006V43.0004H5.66406V37.4004H6.96006V39.6084H9.50406V37.4004H10.8001Z" fill="#FF6B09"/>
</g>
<g filter="url(#filter18_d_9902_9)">
<path d="M128.645 6.7998V24.9998H124.407L116.373 15.3018V24.9998H111.329V6.7998H115.567L123.601 16.4978V6.7998H128.645Z" fill="#111518"/>
</g>
<g filter="url(#filter19_d_9902_9)">
<path d="M107.432 21.0218V24.9998H92.8203V6.7998H107.094V10.7778H97.9163V13.8458H106.002V17.6938H97.9163V21.0218H107.432Z" fill="#111518"/>
</g>
<g clip-path="url(#clip0_9902_9)">
<g filter="url(#filter20_d_9902_9)">
<path d="M85.5397 15.5556C85.2739 14.9601 84.9072 14.3738 84.371 13.6965C83.0189 11.9965 82.6064 8.20557 82.6018 8.1692C82.5835 7.98739 82.4551 7.83739 82.2855 7.78284C82.1114 7.7283 81.9235 7.7783 81.7997 7.91466C80.1864 9.7192 80.8647 12.5056 81.2314 13.6192C81.3322 13.9238 81.4422 14.2828 81.5201 14.6465C82.1159 17.5874 80.9655 18.9192 80.6951 19.1874C80.4338 19.2601 80.2551 19.2238 80.0901 19.0465C79.5217 18.4238 79.3338 16.3828 79.5997 13.7238C79.6547 13.1828 79.6409 12.6965 79.563 12.2419C79.0024 8.97361 76.9467 6.87716 76.4234 6.14193C74.9842 4.01466 74.8376 0.47375 74.833 0.441932C74.8284 0.27375 74.7322 0.12375 74.5809 0.0510227C74.4342 -0.0217046 74.2555 -0.0126137 74.118 0.0828409C71.7163 1.71466 71.9226 5.64648 72.2572 7.84193C72.3351 8.35102 72.4863 8.86921 72.7476 9.52375C73.678 11.8647 72.5642 14.8874 72.5551 14.9147C72.5459 14.9419 72.5367 14.9647 72.5322 14.9919C72.3901 15.7374 72.1517 16.1828 71.8859 16.1828C71.8584 16.1828 71.8309 16.1783 71.7988 16.1692C71.4734 16.101 71.3038 15.7556 71.2992 15.4556C71.2809 11.5783 67.3897 10.2738 67.3484 10.2601C67.1742 10.2056 66.9817 10.2556 66.8626 10.3965C66.7388 10.5374 66.7159 10.7328 66.7984 10.8965C66.8442 10.9919 66.9909 11.4101 66.8901 12.8874C66.803 14.2147 66.5601 15.5283 66.1705 16.7874C65.2447 19.8056 65.3913 22.6647 65.4005 22.801C66.1124 30.5423 77.2456 31.8987 83.853 27.5374C84.5772 27.0601 85.1684 26.5147 85.6038 25.9147C88.0422 22.551 86.6076 17.9828 85.5397 15.5556ZM68.6043 22.951C68.618 23.201 68.4255 23.4147 68.1735 23.4283H68.146C67.903 23.4283 67.7014 23.2419 67.6876 23.001C67.6464 22.3374 67.6555 21.6419 67.706 20.8874C67.7243 20.6374 67.9443 20.451 68.1964 20.4646C68.4485 20.4828 68.641 20.701 68.6226 20.951C68.5722 21.6692 68.563 22.3238 68.6043 22.951ZM68.8288 18.9238C68.8013 19.1556 68.6042 19.3238 68.3751 19.3238C68.3567 19.3238 68.3384 19.3238 68.3155 19.3192C68.068 19.2874 67.8892 19.0647 67.9167 18.8147L68.1367 17.0601C68.1688 16.8147 68.3934 16.6374 68.6501 16.6647C68.9022 16.6965 69.0809 16.9237 69.0488 17.1737L68.8288 18.9238Z" fill="#FF6B09"/>
</g>
<g filter="url(#filter21_d_9902_9)">
<path d="M82.4391 6.21861C82.1891 6.1802 82.0177 5.94851 82.0562 5.70061C82.0848 5.51592 82.2504 4.57047 82.6998 4.09506C82.8728 3.91174 83.1624 3.9022 83.3477 4.07442C83.5323 4.24597 83.5417 4.53365 83.3685 4.71697C83.1783 4.91829 83.0163 5.49442 82.9621 5.83915C82.9234 6.08442 82.6928 6.25656 82.4391 6.21861Z" fill="#FF6B09"/>
</g>
<g filter="url(#filter22_d_9902_9)">
<path d="M65.7298 8.48269C65.6421 8.14464 65.4241 7.58714 65.2149 7.40514C65.0244 7.23955 65.0054 6.95237 65.1723 6.76373C65.3388 6.57464 65.6282 6.55532 65.8191 6.72155C66.313 7.151 66.571 8.07587 66.6178 8.25673C66.6805 8.49978 66.5328 8.747 66.288 8.8096C66.0377 8.872 65.7922 8.72169 65.7298 8.48269Z" fill="#FF6B09"/>
</g>
</g>
<defs>
<filter id="filter0_d_9902_9" x="49.4854" y="5.70801" width="12.9404" height="27.292" filterUnits="userSpaceOnUse" color-interpolation-filters="sRGB">
<feFlood flood-opacity="0" result="BackgroundImageFix"/>
<feColorMatrix in="SourceAlpha" type="matrix" values="0 0 0 0 0 0 0 0 0 0 0 0 0 0 0 0 0 0 127 0" result="hardAlpha"/>
<feOffset dy="4"/>
<feGaussianBlur stdDeviation="2"/>
<feComposite in2="hardAlpha" operator="out"/>
<feColorMatrix type="matrix" values="0 0 0 0 0 0 0 0 0 0 0 0 0 0 0 0 0 0 0.25 0"/>
<feBlend mode="normal" in2="BackgroundImageFix" result="effect1_dropShadow_9902_9"/>
<feBlend mode="normal" in="SourceGraphic" in2="effect1_dropShadow_9902_9" result="shape"/>
</filter>
<filter id="filter1_d_9902_9" x="40.2949" y="5.70801" width="12.9404" height="27.292" filterUnits="userSpaceOnUse" color-interpolation-filters="sRGB">
<feFlood flood-opacity="0" result="BackgroundImageFix"/>
<feColorMatrix in="SourceAlpha" type="matrix" values="0 0 0 0 0 0 0 0 0 0 0 0 0 0 0 0 0 0 127 0" result="hardAlpha"/>
<feOffset dy="4"/>
<feGaussianBlur stdDeviation="2"/>
<feComposite in2="hardAlpha" operator="out"/>
<feColorMatrix type="matrix" values="0 0 0 0 0 0 0 0 0 0 0 0 0 0 0 0 0 0 0.25 0"/>
<feBlend mode="normal" in2="BackgroundImageFix" result="effect1_dropShadow_9902_9"/>
<feBlend mode="normal" in="SourceGraphic" in2="effect1_dropShadow_9902_9" result="shape"/>
</filter>
<filter id="filter2_d_9902_9" x="21.6895" y="10.6738" width="23.2881" height="22.5601" filterUnits="userSpaceOnUse" color-interpolation-filters="sRGB">
<feFlood flood-opacity="0" result="BackgroundImageFix"/>
<feColorMatrix in="SourceAlpha" type="matrix" values="0 0 0 0 0 0 0 0 0 0 0 0 0 0 0 0 0 0 127 0" result="hardAlpha"/>
<feOffset dy="4"/>
<feGaussianBlur stdDeviation="2"/>
<feComposite in2="hardAlpha" operator="out"/>
<feColorMatrix type="matrix" values="0 0 0 0 0 0 0 0 0 0 0 0 0 0 0 0 0 0 0.25 0"/>
<feBlend mode="normal" in2="BackgroundImageFix" result="effect1_dropShadow_9902_9"/>
<feBlend mode="normal" in="SourceGraphic" in2="effect1_dropShadow_9902_9" result="shape"/>
</filter>
<filter id="filter3_d_9902_9" x="0.820312" y="6.7998" width="25.3164" height="26.2002" filterUnits="userSpaceOnUse" color-interpolation-filters="sRGB">
<feFlood flood-opacity="0" result="BackgroundImageFix"/>
<feColorMatrix in="SourceAlpha" type="matrix" values="0 0 0 0 0 0 0 0 0 0 0 0 0 0 0 0 0 0 127 0" result="hardAlpha"/>
<feOffset dy="4"/>
<feGaussianBlur stdDeviation="2"/>
<feComposite in2="hardAlpha" operator="out"/>
<feColorMatrix type="matrix" values="0 0 0 0 0 0 0 0 0 0 0 0 0 0 0 0 0 0 0.25 0"/>
<feBlend mode="normal" in2="BackgroundImageFix" result="effect1_dropShadow_9902_9"/>
<feBlend mode="normal" in="SourceGraphic" in2="effect1_dropShadow_9902_9" result="shape"/>
</filter>
<filter id="filter4_d_9902_9" x="90.3164" y="37.4004" width="13.1357" height="13.6001" filterUnits="userSpaceOnUse" color-interpolation-filters="sRGB">
<feFlood flood-opacity="0" result="BackgroundImageFix"/>
<feColorMatrix in="SourceAlpha" type="matrix" values="0 0 0 0 0 0 0 0 0 0 0 0 0 0 0 0 0 0 127 0" result="hardAlpha"/>
<feOffset dy="4"/>
<feGaussianBlur stdDeviation="2"/>
<feComposite in2="hardAlpha" operator="out"/>
<feColorMatrix type="matrix" values="0 0 0 0 0 0 0 0 0 0 0 0 0 0 0 0 0 0 0.25 0"/>
<feBlend mode="normal" in2="BackgroundImageFix" result="effect1_dropShadow_9902_9"/>
<feBlend mode="normal" in="SourceGraphic" in2="effect1_dropShadow_9902_9" result="shape"/>
</filter>
<filter id="filter5_d_9902_9" x="83.335" y="37.3042" width="12.6562" height="13.792" filterUnits="userSpaceOnUse" color-interpolation-filters="sRGB">
<feFlood flood-opacity="0" result="BackgroundImageFix"/>
<feColorMatrix in="SourceAlpha" type="matrix" values="0 0 0 0 0 0 0 0 0 0 0 0 0 0 0 0 0 0 127 0" result="hardAlpha"/>
<feOffset dy="4"/>
<feGaussianBlur stdDeviation="2"/>
<feComposite in2="hardAlpha" operator="out"/>
<feColorMatrix type="matrix" values="0 0 0 0 0 0 0 0 0 0 0 0 0 0 0 0 0 0 0.25 0"/>
<feBlend mode="normal" in2="BackgroundImageFix" result="effect1_dropShadow_9902_9"/>
<feBlend mode="normal" in="SourceGraphic" in2="effect1_dropShadow_9902_9" result="shape"/>
</filter>
<filter id="filter6_d_9902_9" x="79.71" y="37.4004" width="9.2959" height="13.6001" filterUnits="userSpaceOnUse" color-interpolation-filters="sRGB">
<feFlood flood-opacity="0" result="BackgroundImageFix"/>
<feColorMatrix in="SourceAlpha" type="matrix" values="0 0 0 0 0 0 0 0 0 0 0 0 0 0 0 0 0 0 127 0" result="hardAlpha"/>
<feOffset dy="4"/>
<feGaussianBlur stdDeviation="2"/>
<feComposite in2="hardAlpha" operator="out"/>
<feColorMatrix type="matrix" values="0 0 0 0 0 0 0 0 0 0 0 0 0 0 0 0 0 0 0.25 0"/>
<feBlend mode="normal" in2="BackgroundImageFix" result="effect1_dropShadow_9902_9"/>
<feBlend mode="normal" in="SourceGraphic" in2="effect1_dropShadow_9902_9" result="shape"/>
</filter>
<filter id="filter7_d_9902_9" x="73.4414" y="37.4004" width="12.1035" height="13.6001" filterUnits="userSpaceOnUse" color-interpolation-filters="sRGB">
<feFlood flood-opacity="0" result="BackgroundImageFix"/>
<feColorMatrix in="SourceAlpha" type="matrix" values="0 0 0 0 0 0 0 0 0 0 0 0 0 0 0 0 0 0 127 0" result="hardAlpha"/>
<feOffset dy="4"/>
<feGaussianBlur stdDeviation="2"/>
<feComposite in2="hardAlpha" operator="out"/>
<feColorMatrix type="matrix" values="0 0 0 0 0 0 0 0 0 0 0 0 0 0 0 0 0 0 0.25 0"/>
<feBlend mode="normal" in2="BackgroundImageFix" result="effect1_dropShadow_9902_9"/>
<feBlend mode="normal" in="SourceGraphic" in2="effect1_dropShadow_9902_9" result="shape"/>
</filter>
<filter id="filter8_d_9902_9" x="65.4775" y="37.3042" width="13.4238" height="13.792" filterUnits="userSpaceOnUse" color-interpolation-filters="sRGB">
<feFlood flood-opacity="0" result="BackgroundImageFix"/>
<feColorMatrix in="SourceAlpha" type="matrix" values="0 0 0 0 0 0 0 0 0 0 0 0 0 0 0 0 0 0 127 0" result="hardAlpha"/>
<feOffset dy="4"/>
<feGaussianBlur stdDeviation="2"/>
<feComposite in2="hardAlpha" operator="out"/>
<feColorMatrix type="matrix" values="0 0 0 0 0 0 0 0 0 0 0 0 0 0 0 0 0 0 0.25 0"/>
<feBlend mode="normal" in2="BackgroundImageFix" result="effect1_dropShadow_9902_9"/>
<feBlend mode="normal" in="SourceGraphic" in2="effect1_dropShadow_9902_9" result="shape"/>
</filter>
<filter id="filter9_d_9902_9" x="57.9287" y="37.4004" width="13.1357" height="13.6001" filterUnits="userSpaceOnUse" color-interpolation-filters="sRGB">
<feFlood flood-opacity="0" result="BackgroundImageFix"/>
<feColorMatrix in="SourceAlpha" type="matrix" values="0 0 0 0 0 0 0 0 0 0 0 0 0 0 0 0 0 0 127 0" result="hardAlpha"/>
<feOffset dy="4"/>
<feGaussianBlur stdDeviation="2"/>
<feComposite in2="hardAlpha" operator="out"/>
<feColorMatrix type="matrix" values="0 0 0 0 0 0 0 0 0 0 0 0 0 0 0 0 0 0 0.25 0"/>
<feBlend mode="normal" in2="BackgroundImageFix" result="effect1_dropShadow_9902_9"/>
<feBlend mode="normal" in="SourceGraphic" in2="effect1_dropShadow_9902_9" result="shape"/>
</filter>
<filter id="filter10_d_9902_9" x="51.1211" y="37.4004" width="12.3359" height="13.6001" filterUnits="userSpaceOnUse" color-interpolation-filters="sRGB">
<feFlood flood-opacity="0" result="BackgroundImageFix"/>
<feColorMatrix in="SourceAlpha" type="matrix" values="0 0 0 0 0 0 0 0 0 0 0 0 0 0 0 0 0 0 127 0" result="hardAlpha"/>
<feOffset dy="4"/>
<feGaussianBlur stdDeviation="2"/>
<feComposite in2="hardAlpha" operator="out"/>
<feColorMatrix type="matrix" values="0 0 0 0 0 0 0 0 0 0 0 0 0 0 0 0 0 0 0.25 0"/>
<feBlend mode="normal" in2="BackgroundImageFix" result="effect1_dropShadow_9902_9"/>
<feBlend mode="normal" in="SourceGraphic" in2="effect1_dropShadow_9902_9" result="shape"/>
</filter>
<filter id="filter11_d_9902_9" x="39.5146" y="37.4004" width="13.1357" height="13.6001" filterUnits="userSpaceOnUse" color-interpolation-filters="sRGB">
<feFlood flood-opacity="0" result="BackgroundImageFix"/>
<feColorMatrix in="SourceAlpha" type="matrix" values="0 0 0 0 0 0 0 0 0 0 0 0 0 0 0 0 0 0 127 0" result="hardAlpha"/>
<feOffset dy="4"/>
<feGaussianBlur stdDeviation="2"/>
<feComposite in2="hardAlpha" operator="out"/>
<feColorMatrix type="matrix" values="0 0 0 0 0 0 0 0 0 0 0 0 0 0 0 0 0 0 0.25 0"/>
<feBlend mode="normal" in2="BackgroundImageFix" result="effect1_dropShadow_9902_9"/>
<feBlend mode="normal" in="SourceGraphic" in2="effect1_dropShadow_9902_9" result="shape"/>
</filter>
<filter id="filter12_d_9902_9" x="32.5332" y="37.3042" width="12.6562" height="13.792" filterUnits="userSpaceOnUse" color-interpolation-filters="sRGB">
<feFlood flood-opacity="0" result="BackgroundImageFix"/>
<feColorMatrix in="SourceAlpha" type="matrix" values="0 0 0 0 0 0 0 0 0 0 0 0 0 0 0 0 0 0 127 0" result="hardAlpha"/>
<feOffset dy="4"/>
<feGaussianBlur stdDeviation="2"/>
<feComposite in2="hardAlpha" operator="out"/>
<feColorMatrix type="matrix" values="0 0 0 0 0 0 0 0 0 0 0 0 0 0 0 0 0 0 0.25 0"/>
<feBlend mode="normal" in2="BackgroundImageFix" result="effect1_dropShadow_9902_9"/>
<feBlend mode="normal" in="SourceGraphic" in2="effect1_dropShadow_9902_9" result="shape"/>
</filter>
<filter id="filter13_d_9902_9" x="28.9082" y="37.4004" width="9.2959" height="13.6001" filterUnits="userSpaceOnUse" color-interpolation-filters="sRGB">
<feFlood flood-opacity="0" result="BackgroundImageFix"/>
<feColorMatrix in="SourceAlpha" type="matrix" values="0 0 0 0 0 0 0 0 0 0 0 0 0 0 0 0 0 0 127 0" result="hardAlpha"/>
<feOffset dy="4"/>
<feGaussianBlur stdDeviation="2"/>
<feComposite in2="hardAlpha" operator="out"/>
<feColorMatrix type="matrix" values="0 0 0 0 0 0 0 0 0 0 0 0 0 0 0 0 0 0 0.25 0"/>
<feBlend mode="normal" in2="BackgroundImageFix" result="effect1_dropShadow_9902_9"/>
<feBlend mode="normal" in="SourceGraphic" in2="effect1_dropShadow_9902_9" result="shape"/>
</filter>
<filter id="filter14_d_9902_9" x="22.6406" y="37.4004" width="12.1035" height="13.6001" filterUnits="userSpaceOnUse" color-interpolation-filters="sRGB">
<feFlood flood-opacity="0" result="BackgroundImageFix"/>
<feColorMatrix in="SourceAlpha" type="matrix" values="0 0 0 0 0 0 0 0 0 0 0 0 0 0 0 0 0 0 127 0" result="hardAlpha"/>
<feOffset dy="4"/>
<feGaussianBlur stdDeviation="2"/>
<feComposite in2="hardAlpha" operator="out"/>
<feColorMatrix type="matrix" values="0 0 0 0 0 0 0 0 0 0 0 0 0 0 0 0 0 0 0.25 0"/>
<feBlend mode="normal" in2="BackgroundImageFix" result="effect1_dropShadow_9902_9"/>
<feBlend mode="normal" in="SourceGraphic" in2="effect1_dropShadow_9902_9" result="shape"/>
</filter>
<filter id="filter15_d_9902_9" x="16.3721" y="37.4004" width="12.1035" height="13.6001" filterUnits="userSpaceOnUse" color-interpolation-filters="sRGB">
<feFlood flood-opacity="0" result="BackgroundImageFix"/>
<feColorMatrix in="SourceAlpha" type="matrix" values="0 0 0 0 0 0 0 0 0 0 0 0 0 0 0 0 0 0 127 0" result="hardAlpha"/>
<feOffset dy="4"/>
<feGaussianBlur stdDeviation="2"/>
<feComposite in2="hardAlpha" operator="out"/>
<feColorMatrix type="matrix" values="0 0 0 0 0 0 0 0 0 0 0 0 0 0 0 0 0 0 0.25 0"/>
<feBlend mode="normal" in2="BackgroundImageFix" result="effect1_dropShadow_9902_9"/>
<feBlend mode="normal" in="SourceGraphic" in2="effect1_dropShadow_9902_9" result="shape"/>
</filter>
<filter id="filter16_d_9902_9" x="9.56543" y="37.4004" width="12.3359" height="13.6001" filterUnits="userSpaceOnUse" color-interpolation-filters="sRGB">
<feFlood flood-opacity="0" result="BackgroundImageFix"/>
<feColorMatrix in="SourceAlpha" type="matrix" values="0 0 0 0 0 0 0 0 0 0 0 0 0 0 0 0 0 0 127 0" result="hardAlpha"/>
<feOffset dy="4"/>
<feGaussianBlur stdDeviation="2"/>
<feComposite in2="hardAlpha" operator="out"/>
<feColorMatrix type="matrix" values="0 0 0 0 0 0 0 0 0 0 0 0 0 0 0 0 0 0 0.25 0"/>
<feBlend mode="normal" in2="BackgroundImageFix" result="effect1_dropShadow_9902_9"/>
<feBlend mode="normal" in="SourceGraphic" in2="effect1_dropShadow_9902_9" result="shape"/>
</filter>
<filter id="filter17_d_9902_9" x="1.66406" y="37.4004" width="13.1357" height="13.6001" filterUnits="userSpaceOnUse" color-interpolation-filters="sRGB">
<feFlood flood-opacity="0" result="BackgroundImageFix"/>
<feColorMatrix in="SourceAlpha" type="matrix" values="0 0 0 0 0 0 0 0 0 0 0 0 0 0 0 0 0 0 127 0" result="hardAlpha"/>
<feOffset dy="4"/>
<feGaussianBlur stdDeviation="2"/>
<feComposite in2="hardAlpha" operator="out"/>
<feColorMatrix type="matrix" values="0 0 0 0 0 0 0 0 0 0 0 0 0 0 0 0 0 0 0.25 0"/>
<feBlend mode="normal" in2="BackgroundImageFix" result="effect1_dropShadow_9902_9"/>
<feBlend mode="normal" in="SourceGraphic" in2="effect1_dropShadow_9902_9" result="shape"/>
</filter>
<filter id="filter18_d_9902_9" x="107.329" y="6.7998" width="25.3164" height="26.2002" filterUnits="userSpaceOnUse" color-interpolation-filters="sRGB">
<feFlood flood-opacity="0" result="BackgroundImageFix"/>
<feColorMatrix in="SourceAlpha" type="matrix" values="0 0 0 0 0 0 0 0 0 0 0 0 0 0 0 0 0 0 127 0" result="hardAlpha"/>
<feOffset dy="4"/>
<feGaussianBlur stdDeviation="2"/>
<feComposite in2="hardAlpha" operator="out"/>
<feColorMatrix type="matrix" values="0 0 0 0 0 0 0 0 0 0 0 0 0 0 0 0 0 0 0.25 0"/>
<feBlend mode="normal" in2="BackgroundImageFix" result="effect1_dropShadow_9902_9"/>
<feBlend mode="normal" in="SourceGraphic" in2="effect1_dropShadow_9902_9" result="shape"/>
</filter>
<filter id="filter19_d_9902_9" x="88.8203" y="6.7998" width="22.6123" height="26.2002" filterUnits="userSpaceOnUse" color-interpolation-filters="sRGB">
<feFlood flood-opacity="0" result="BackgroundImageFix"/>
<feColorMatrix in="SourceAlpha" type="matrix" values="0 0 0 0 0 0 0 0 0 0 0 0 0 0 0 0 0 0 127 0" result="hardAlpha"/>
<feOffset dy="4"/>
<feGaussianBlur stdDeviation="2"/>
<feComposite in2="hardAlpha" operator="out"/>
<feColorMatrix type="matrix" values="0 0 0 0 0 0 0 0 0 0 0 0 0 0 0 0 0 0 0.25 0"/>
<feBlend mode="normal" in2="BackgroundImageFix" result="effect1_dropShadow_9902_9"/>
<feBlend mode="normal" in="SourceGraphic" in2="effect1_dropShadow_9902_9" result="shape"/>
</filter>
<filter id="filter20_d_9902_9" x="61.3867" y="0.00292969" width="29.5557" height="37.9937" filterUnits="userSpaceOnUse" color-interpolation-filters="sRGB">
<feFlood flood-opacity="0" result="BackgroundImageFix"/>
<feColorMatrix in="SourceAlpha" type="matrix" values="0 0 0 0 0 0 0 0 0 0 0 0 0 0 0 0 0 0 127 0" result="hardAlpha"/>
<feOffset dy="4"/>
<feGaussianBlur stdDeviation="2"/>
<feComposite in2="hardAlpha" operator="out"/>
<feColorMatrix type="matrix" values="0 0 0 0 0 0 0 0 0 0 0 0 0 0 0 0 0 0 0.25 0"/>
<feBlend mode="normal" in2="BackgroundImageFix" result="effect1_dropShadow_9902_9"/>
<feBlend mode="normal" in="SourceGraphic" in2="effect1_dropShadow_9902_9" result="shape"/>
</filter>
<filter id="filter21_d_9902_9" x="78.0508" y="3.95117" width="9.44141" height="10.2725" filterUnits="userSpaceOnUse" color-interpolation-filters="sRGB">
<feFlood flood-opacity="0" result="BackgroundImageFix"/>
<feColorMatrix in="SourceAlpha" type="matrix" values="0 0 0 0 0 0 0 0 0 0 0 0 0 0 0 0 0 0 127 0" result="hardAlpha"/>
<feOffset dy="4"/>
<feGaussianBlur stdDeviation="2"/>
<feComposite in2="hardAlpha" operator="out"/>
<feColorMatrix type="matrix" values="0 0 0 0 0 0 0 0 0 0 0 0 0 0 0 0 0 0 0.25 0"/>
<feBlend mode="normal" in2="BackgroundImageFix" result="effect1_dropShadow_9902_9"/>
<feBlend mode="normal" in="SourceGraphic" in2="effect1_dropShadow_9902_9" result="shape"/>
</filter>
<filter id="filter22_d_9902_9" x="61.0586" y="6.6084" width="9.57324" height="10.2153" filterUnits="userSpaceOnUse" color-interpolation-filters="sRGB">
<feFlood flood-opacity="0" result="BackgroundImageFix"/>
<feColorMatrix in="SourceAlpha" type="matrix" values="0 0 0 0 0 0 0 0 0 0 0 0 0 0 0 0 0 0 127 0" result="hardAlpha"/>
<feOffset dy="4"/>
<feGaussianBlur stdDeviation="2"/>
<feComposite in2="hardAlpha" operator="out"/>
<feColorMatrix type="matrix" values="0 0 0 0 0 0 0 0 0 0 0 0 0 0 0 0 0 0 0.25 0"/>
<feBlend mode="normal" in2="BackgroundImageFix" result="effect1_dropShadow_9902_9"/>
<feBlend mode="normal" in="SourceGraphic" in2="effect1_dropShadow_9902_9" result="shape"/>
</filter>
<clipPath id="clip0_9902_9">
<rect width="22" height="30" fill="white" transform="translate(65)"/>
</clipPath>
</defs>
</svg>
